<svg xmlns="http://www.w3.org/2000/svg" viewBox="0 0 1200 750" role="img" aria-label="ai integration">
<defs>
<linearGradient id="bg5" x1="0" y1="0" x2="1" y2="1"><stop offset="0" stop-color="#0b1119"/><stop offset="1" stop-color="#101a28"/></linearGradient>
<linearGradient id="ac5" x1="0" y1="0" x2="1" y2="1"><stop offset="0" stop-color="#7c8cff"/><stop offset="1" stop-color="#ffb86b"/></linearGradient>
<radialGradient id="gl5" cx=".7" cy=".25" r=".6"><stop offset="0" stop-color="#7c8cff" stop-opacity=".28"/><stop offset="1" stop-color="#7c8cff" stop-opacity="0"/></radialGradient>
<pattern id="gr5" width="48" height="48" patternUnits="userSpaceOnUse"><path d="M48 0H0V48" fill="none" stroke="#1c2838" stroke-width="1"/></pattern>
</defs>
<rect width="1200" height="750" fill="url(#bg5)"/><rect width="1200" height="750" fill="url(#gr5)" opacity=".7"/><rect width="1200" height="750" fill="url(#gl5)"/>
<circle cx="300" cy="250" r="26" fill="#0f1722" stroke="url(#ac5)" stroke-width="2"/><circle cx="300" cy="250" r="8.666666666666666" fill="url(#ac5)"/><circle cx="300" cy="400" r="26" fill="#0f1722" stroke="url(#ac5)" stroke-width="2"/><circle cx="300" cy="400" r="8.666666666666666" fill="url(#ac5)"/><circle cx="300" cy="550" r="26" fill="#0f1722" stroke="url(#ac5)" stroke-width="2"/><circle cx="300" cy="550" r="8.666666666666666" fill="url(#ac5)"/><circle cx="600" cy="200" r="26" fill="#0f1722" stroke="url(#ac5)" stroke-width="2"/><circle cx="600" cy="200" r="8.666666666666666" fill="url(#ac5)"/><circle cx="600" cy="330" r="26" fill="#0f1722" stroke="url(#ac5)" stroke-width="2"/><circle cx="600" cy="330" r="8.666666666666666" fill="url(#ac5)"/><circle cx="600" cy="460" r="26" fill="#0f1722" stroke="url(#ac5)" stroke-width="2"/><circle cx="600" cy="460" r="8.666666666666666" fill="url(#ac5)"/><circle cx="600" cy="590" r="26" fill="#0f1722" stroke="url(#ac5)" stroke-width="2"/><circle cx="600" cy="590" r="8.666666666666666" fill="url(#ac5)"/><circle cx="900" cy="320" r="26" fill="#0f1722" stroke="url(#ac5)" stroke-width="2"/><circle cx="900" cy="320" r="8.666666666666666" fill="url(#ac5)"/><circle cx="900" cy="480" r="26" fill="#0f1722" stroke="url(#ac5)" stroke-width="2"/><circle cx="900" cy="480" r="8.666666666666666" fill="url(#ac5)"/><line x1="300" y1="250" x2="600" y2="200" stroke="#2a3b52" stroke-width="1.5"/><line x1="300" y1="250" x2="600" y2="330" stroke="#2a3b52" stroke-width="1.5"/><line x1="300" y1="250" x2="600" y2="460" stroke="#2a3b52" stroke-width="1.5"/><line x1="300" y1="250" x2="600" y2="590" stroke="#2a3b52" stroke-width="1.5"/><line x1="300" y1="400" x2="600" y2="200" stroke="#2a3b52" stroke-width="1.5"/><line x1="300" y1="400" x2="600" y2="330" stroke="#2a3b52" stroke-width="1.5"/><line x1="300" y1="400" x2="600" y2="460" stroke="#2a3b52" stroke-width="1.5"/><line x1="300" y1="400" x2="600" y2="590" stroke="#2a3b52" stroke-width="1.5"/><line x1="300" y1="550" x2="600" y2="200" stroke="#2a3b52" stroke-width="1.5"/><line x1="300" y1="550" x2="600" y2="330" stroke="#2a3b52" stroke-width="1.5"/><line x1="300" y1="550" x2="600" y2="460" stroke="#2a3b52" stroke-width="1.5"/><line x1="300" y1="550" x2="600" y2="590" stroke="#2a3b52" stroke-width="1.5"/><line x1="600" y1="200" x2="900" y2="320" stroke="url(#ac5)" stroke-width="1.5" opacity=".6"/><line x1="600" y1="200" x2="900" y2="480" stroke="url(#ac5)" stroke-width="1.5" opacity=".6"/><line x1="600" y1="330" x2="900" y2="320" stroke="url(#ac5)" stroke-width="1.5" opacity=".6"/><line x1="600" y1="330" x2="900" y2="480" stroke="url(#ac5)" stroke-width="1.5" opacity=".6"/><line x1="600" y1="460" x2="900" y2="320" stroke="url(#ac5)" stroke-width="1.5" opacity=".6"/><line x1="600" y1="460" x2="900" y2="480" stroke="url(#ac5)" stroke-width="1.5" opacity=".6"/><line x1="600" y1="590" x2="900" y2="320" stroke="url(#ac5)" stroke-width="1.5" opacity=".6"/><line x1="600" y1="590" x2="900" y2="480" stroke="url(#ac5)" stroke-width="1.5" opacity=".6"/>
</svg>