<svg xmlns="http://www.w3.org/2000/svg" viewBox="0 0 1200 750" role="img" aria-label="devops cloud deployment">
<defs>
<linearGradient id="bg4" x1="0" y1="0" x2="1" y2="1"><stop offset="0" stop-color="#0b1119"/><stop offset="1" stop-color="#101a28"/></linearGradient>
<linearGradient id="ac4" x1="0" y1="0" x2="1" y2="1"><stop offset="0" stop-color="#62d0ff"/><stop offset="1" stop-color="#7c8cff"/></linearGradient>
<radialGradient id="gl4" cx=".7" cy=".25" r=".6"><stop offset="0" stop-color="#62d0ff" stop-opacity=".28"/><stop offset="1" stop-color="#62d0ff" stop-opacity="0"/></radialGradient>
<pattern id="gr4" width="48" height="48" patternUnits="userSpaceOnUse"><path d="M48 0H0V48" fill="none" stroke="#1c2838" stroke-width="1"/></pattern>
</defs>
<rect width="1200" height="750" fill="url(#bg4)"/><rect width="1200" height="750" fill="url(#gr4)" opacity=".7"/><rect width="1200" height="750" fill="url(#gl4)"/>
<path d="M360 470c-70 0-110-40-110-90 0-52 44-90 100-86 20-60 78-96 140-84 50 10 84 44 94 84 62-6 114 30 114 88 0 52-44 88-100 88z" fill="#0f1722" stroke="url(#ac4)" stroke-width="3"/><rect x="430" y="520" width="90" height="70" rx="12" fill="#142031" stroke="#25344a"/><rect x="446" y="540" width="58" height="8" rx="4" fill="url(#ac4)"/><rect x="446" y="560" width="40" height="8" rx="4" fill="#34475f"/><rect x="550" y="520" width="90" height="70" rx="12" fill="#142031" stroke="#25344a"/><rect x="566" y="540" width="58" height="8" rx="4" fill="url(#ac4)"/><rect x="566" y="560" width="40" height="8" rx="4" fill="#34475f"/><rect x="670" y="520" width="90" height="70" rx="12" fill="#142031" stroke="#25344a"/><rect x="686" y="540" width="58" height="8" rx="4" fill="url(#ac4)"/><rect x="686" y="560" width="40" height="8" rx="4" fill="#34475f"/><path d="M475 470v50M595 470v50M715 470v50" stroke="url(#ac4)" stroke-width="2" stroke-dasharray="6 6"/>
</svg>