<svg xmlns="http://www.w3.org/2000/svg" viewBox="0 0 1200 750" role="img" aria-label="saas application development">
<defs>
<linearGradient id="bg3" x1="0" y1="0" x2="1" y2="1"><stop offset="0" stop-color="#0b1119"/><stop offset="1" stop-color="#101a28"/></linearGradient>
<linearGradient id="ac3" x1="0" y1="0" x2="1" y2="1"><stop offset="0" stop-color="#5eead4"/><stop offset="1" stop-color="#62d0ff"/></linearGradient>
<radialGradient id="gl3" cx=".7" cy=".25" r=".6"><stop offset="0" stop-color="#5eead4" stop-opacity=".28"/><stop offset="1" stop-color="#5eead4" stop-opacity="0"/></radialGradient>
<pattern id="gr3" width="48" height="48" patternUnits="userSpaceOnUse"><path d="M48 0H0V48" fill="none" stroke="#1c2838" stroke-width="1"/></pattern>
</defs>
<rect width="1200" height="750" fill="url(#bg3)"/><rect width="1200" height="750" fill="url(#gr3)" opacity=".7"/><rect width="1200" height="750" fill="url(#gl3)"/>
<rect x="150" y="120" width="900" height="510" rx="18" fill="#0f1722" stroke="#25344a"/><circle cx="174" cy="144" r="5" fill="#ff7a7a"/><circle cx="194" cy="144" r="5" fill="#ffd36e"/><circle cx="214" cy="144" r="5" fill="#6ee79a"/><rect x="180" y="170" width="170" height="430" rx="10" fill="#101a28"/><rect x="200" y="200" width="100" height="14" rx="7" fill="#2a3b52"/><rect x="200" y="244" width="130" height="14" rx="7" fill="url(#ac3)"/><rect x="200" y="288" width="100" height="14" rx="7" fill="#2a3b52"/><rect x="200" y="332" width="100" height="14" rx="7" fill="#2a3b52"/><rect x="200" y="376" width="100" height="14" rx="7" fill="#2a3b52"/><rect x="400" y="430" width="28" height="90" rx="7" fill="url(#ac3)" opacity="0.45"/><rect x="446" y="370" width="28" height="150" rx="7" fill="url(#ac3)" opacity="0.52"/><rect x="492" y="400" width="28" height="120" rx="7" fill="url(#ac3)" opacity="0.5900000000000001"/><rect x="538" y="310" width="28" height="210" rx="7" fill="url(#ac3)" opacity="0.66"/><rect x="584" y="350" width="28" height="170" rx="7" fill="url(#ac3)" opacity="0.73"/><rect x="630" y="270" width="28" height="250" rx="7" fill="url(#ac3)" opacity="0.8"/><rect x="676" y="300" width="28" height="220" rx="7" fill="url(#ac3)" opacity="0.8700000000000001"/><rect x="722" y="220" width="28" height="300" rx="7" fill="url(#ac3)" opacity="0.9400000000000001"/><rect x="768" y="260" width="28" height="260" rx="7" fill="url(#ac3)" opacity="1.01"/><rect x="814" y="180" width="28" height="340" rx="7" fill="url(#ac3)" opacity="1.08"/><polyline points="400,300 470,270 540,285 610,240 680,255 750,200 820,215 900,170" fill="none" stroke="url(#ac3)" stroke-width="4" stroke-linecap="round"/>
</svg>